<?xml version="1.0" standalone="no"?>
<!DOCTYPE svg PUBLIC "-//W3C//DTD SVG 20010904//EN"
 "http://www.w3.org/TR/2001/REC-SVG-20010904/DTD/svg10.dtd">
<svg version="1.0" xmlns="http://www.w3.org/2000/svg"
 width="144.000000pt" height="144.000000pt" viewBox="0 0 144.000000 144.000000"
 preserveAspectRatio="xMidYMid meet">
<metadata>
Created by potrace 1.11, written by Peter Selinger 2001-2013
</metadata>
<g transform="translate(0.000000,144.000000) scale(0.100000,-0.100000)"
fill="#000000" stroke="none">
<path d="M360 909 c-96 -55 -187 -114 -202 -130 -37 -39 -37 -79 -1 -118 33
-34 369 -231 396 -231 27 0 75 27 87 49 5 11 10 36 10 56 0 46 -22 68 -132
130 -49 28 -88 52 -88 55 0 3 43 29 95 59 52 29 102 63 110 74 17 25 20 80 5
108 -12 22 -60 49 -87 49 -10 0 -97 -45 -193 -101z"/>
<path d="M838 994 c-35 -18 -48 -43 -48 -89 0 -46 22 -68 132 -130 49 -28 88
-53 88 -56 0 -3 -39 -27 -87 -54 -49 -27 -98 -59 -110 -72 -27 -27 -31 -82 -7
-118 18 -28 72 -49 100 -39 48 18 352 200 377 225 17 19 27 40 27 59 0 18 -10
41 -27 59 -34 36 -370 231 -398 231 -11 -1 -32 -7 -47 -16z"/>
</g>
</svg>
